<?xml version="1.0" encoding="UTF-8" standalone="no"?>
<!DOCTYPE svg PUBLIC "-//W3C//DTD SVG 1.1//EN"
 "http://www.w3.org/Graphics/SVG/1.1/DTD/svg11.dtd">
<!-- Generated by graphviz version 7.0.4 (0)
 -->
<!-- Pages: 1 -->
<svg width="350pt" height="188pt"
 viewBox="0.00 0.00 350.00 188.00" xmlns="http://www.w3.org/2000/svg" xmlns:xlink="http://www.w3.org/1999/xlink">
<g id="graph0" class="graph" transform="scale(1 1) rotate(0) translate(4 184)">
<polygon fill="white" stroke="none" points="-4,4 -4,-184 346,-184 346,4 -4,4"/>
<!-- 0 -->
<g id="node1" class="node">
<title>0</title>
<polygon fill="none" stroke="black" points="290,-36 144,-36 144,0 290,0 290,-36"/>
<text text-anchor="middle" x="217" y="-14.3" font-family="Times,serif" font-size="14.00">cimvr_engine_interface</text>
</g>
<!-- 1 -->
<g id="node2" class="node">
<title>1</title>
<polygon fill="none" stroke="black" points="107,-108 15,-108 15,-72 107,-72 107,-108"/>
<text text-anchor="middle" x="61" y="-86.3" font-family="Times,serif" font-size="14.00">cimvr_engine</text>
</g>
<!-- 1&#45;&gt;0 -->
<g id="edge1" class="edge">
<title>1&#45;&gt;0</title>
<path fill="none" stroke="black" d="M99.96,-71.52C120.52,-62.29 145.94,-50.89 167.83,-41.06"/>
<polygon fill="black" stroke="black" points="169.19,-44.29 176.88,-37 166.33,-37.9 169.19,-44.29"/>
</g>
<!-- 2 -->
<g id="node3" class="node">
<title>2</title>
<polygon fill="none" stroke="black" points="229,-108 125,-108 125,-72 229,-72 229,-108"/>
<text text-anchor="middle" x="177" y="-86.3" font-family="Times,serif" font-size="14.00">cimvr_common</text>
</g>
<!-- 2&#45;&gt;0 -->
<g id="edge2" class="edge">
<title>2&#45;&gt;0</title>
<path fill="none" stroke="black" d="M186.89,-71.7C191.34,-63.9 196.71,-54.51 201.67,-45.83"/>
<polygon fill="black" stroke="black" points="204.55,-47.84 206.48,-37.42 198.47,-44.36 204.55,-47.84"/>
</g>
<!-- 3 -->
<g id="node4" class="node">
<title>3</title>
<polygon fill="none" stroke="black" points="86,-180 0,-180 0,-144 86,-144 86,-180"/>
<text text-anchor="middle" x="43" y="-158.3" font-family="Times,serif" font-size="14.00">cimvr_client</text>
</g>
<!-- 3&#45;&gt;1 -->
<g id="edge4" class="edge">
<title>3&#45;&gt;1</title>
<path fill="none" stroke="black" d="M47.45,-143.7C49.35,-136.32 51.61,-127.52 53.74,-119.25"/>
<polygon fill="black" stroke="black" points="57.12,-120.13 56.22,-109.57 50.34,-118.38 57.12,-120.13"/>
</g>
<!-- 3&#45;&gt;2 -->
<g id="edge3" class="edge">
<title>3&#45;&gt;2</title>
<path fill="none" stroke="black" d="M76.47,-143.52C93.87,-134.43 115.33,-123.22 133.95,-113.49"/>
<polygon fill="black" stroke="black" points="135.37,-116.69 142.62,-108.96 132.13,-110.49 135.37,-116.69"/>
</g>
<!-- 4 -->
<g id="node5" class="node">
<title>4</title>
<polygon fill="none" stroke="black" points="193.5,-180 104.5,-180 104.5,-144 193.5,-144 193.5,-180"/>
<text text-anchor="middle" x="149" y="-158.3" font-family="Times,serif" font-size="14.00">cimvr_server</text>
</g>
<!-- 4&#45;&gt;1 -->
<g id="edge6" class="edge">
<title>4&#45;&gt;1</title>
<path fill="none" stroke="black" d="M127.25,-143.7C116.56,-135.2 103.51,-124.81 91.82,-115.51"/>
<polygon fill="black" stroke="black" points="94,-112.78 83.99,-109.29 89.64,-118.25 94,-112.78"/>
</g>
<!-- 4&#45;&gt;2 -->
<g id="edge5" class="edge">
<title>4&#45;&gt;2</title>
<path fill="none" stroke="black" d="M155.92,-143.7C158.94,-136.15 162.55,-127.12 165.93,-118.68"/>
<polygon fill="black" stroke="black" points="169.13,-120.09 169.6,-109.51 162.63,-117.49 169.13,-120.09"/>
</g>
<!-- 5 -->
<g id="node6" class="node">
<title>5</title>
<polygon fill="none" stroke="black" points="266,-180 212,-180 212,-144 266,-144 266,-180"/>
<text text-anchor="middle" x="239" y="-158.3" font-family="Times,serif" font-size="14.00">plugin</text>
</g>
<!-- 5&#45;&gt;0 -->
<g id="edge8" class="edge">
<title>5&#45;&gt;0</title>
<path fill="none" stroke="black" d="M240.65,-143.75C241.95,-125.68 242.83,-96.56 238,-72 236.34,-63.55 233.38,-54.72 230.2,-46.75"/>
<polygon fill="black" stroke="black" points="233.42,-45.38 226.26,-37.57 226.99,-48.14 233.42,-45.38"/>
</g>
<!-- 5&#45;&gt;2 -->
<g id="edge7" class="edge">
<title>5&#45;&gt;2</title>
<path fill="none" stroke="black" d="M223.67,-143.7C216.47,-135.56 207.72,-125.69 199.76,-116.7"/>
<polygon fill="black" stroke="black" points="202.4,-114.4 193.15,-109.24 197.16,-119.04 202.4,-114.4"/>
</g>
<!-- 6 -->
<g id="node7" class="node">
<title>6</title>
<polygon fill="none" stroke="black" points="342,-180 284,-180 284,-144 342,-144 342,-180"/>
<text text-anchor="middle" x="313" y="-158.3" font-family="Times,serif" font-size="14.00">plugin2</text>
</g>
<!-- 6&#45;&gt;0 -->
<g id="edge10" class="edge">
<title>6&#45;&gt;0</title>
<path fill="none" stroke="black" d="M301.59,-143.52C289.8,-125.52 270.79,-96.68 254,-72 248.1,-63.33 241.58,-53.93 235.68,-45.49"/>
<polygon fill="black" stroke="black" points="238.58,-43.53 229.97,-37.35 232.85,-47.55 238.58,-43.53"/>
</g>
<!-- 6&#45;&gt;2 -->
<g id="edge9" class="edge">
<title>6&#45;&gt;2</title>
<path fill="none" stroke="black" d="M283.82,-145.98C265.53,-136.57 241.6,-124.25 221.02,-113.66"/>
<polygon fill="black" stroke="black" points="222.76,-110.62 212.27,-109.15 219.56,-116.84 222.76,-110.62"/>
</g>
</g>
</svg>
